# This file uses centimeters as units for non-parametric coordinates.

g default
v -2.998355 0.000000 8.674699
v 4.183930 0.000000 8.674699
v -2.998355 7.182284 8.674699
v -2.998355 7.182284 1.492415
v 4.183930 7.182284 1.492415
v -2.998355 0.000000 1.492415
v 4.183930 0.000000 1.492415
v 1.967280 7.182284 8.401367
v 3.132214 7.182284 7.622983
v 3.910597 7.182284 6.458049
v 4.183930 7.182284 5.083916
v 0.593147 7.182284 8.674699
v 4.183930 6.908952 6.458049
v 4.183930 6.130568 7.622983
v 4.183930 4.965634 8.401367
v 4.183930 3.591501 8.674699
v 3.910597 4.965634 8.674699
v 3.132214 6.130568 8.674699
v 1.967280 6.908952 8.674699
v 2.146495 6.979515 8.484388
v 3.558960 6.642712 8.042019
v 4.013760 6.959373 6.637265
v 3.985124 5.144850 8.480425
v 3.358996 6.964651 7.845655
v 3.362315 6.406085 8.422001
v 3.934126 6.405782 7.848644
vt 0.625000 0.500000
vt 0.375000 0.750000
vt 0.625000 0.750000
vt 0.375000 1.000000
vt 0.625000 1.000000
vt 0.125000 0.000000
vt 0.125000 0.250000
vt 0.625000 0.374987
vt 0.375000 0.500000
vt 0.375000 0.250000
vt 0.500013 0.250000
vt 0.625000 0.125013
vt 0.875000 0.000000
vt 0.875000 0.250000
vt 0.749987 0.250000
vt 0.500013 0.250000
vt 0.375000 0.000000
vt 0.625000 0.000000
vt 0.625000 0.125013
vt 0.562506 0.250000
vt 0.625000 0.250000
vt 0.625000 0.312494
vt 0.687494 0.250000
vt 0.625000 0.250000
vt 0.625000 0.187506
vt 0.625000 0.187506
vt 0.625000 0.250000
vt 0.562506 0.250000
vt 0.000000 0.000000
vt 1.000000 0.000000
vt 0.961940 0.273262
vt 0.000000 0.000000
vt 1.000000 0.000000
vt 0.038060 0.273261
vt 0.000000 0.000000
vt 1.000000 0.000000
vt 0.961940 0.273261
vt 0.097787 0.000000
vt 1.000000 0.000000
vt 0.623737 0.880781
vt 0.000000 0.228907
vt 0.097788 0.000000
vt 1.000000 0.000000
vt 0.623737 0.880781
vt 0.000000 0.228908
vt 0.000000 0.000000
vt 0.902213 0.000000
vt 1.000000 0.228907
vt 0.376263 0.880781
vt 0.020283 0.145625
vt 0.954325 0.121988
vt 0.191350 0.447926
vt 0.798241 0.472290
vt 0.975666 0.174711
vt 0.035266 0.146353
vt 0.810698 0.443132
vt 0.980514 0.139902
vt 0.047723 0.117194
vt 0.913626 0.202189
vt 0.081918 0.191758
vt 0.315024 0.737430
vt 0.685654 0.735842
vt 0.944832 0.129141
vt 0.674592 0.761736
vn 0.000000 0.000000 -1.000000
vn 0.000000 0.000000 -1.000000
vn 0.000000 0.000000 -1.000000
vn 0.000000 0.000000 -1.000000
vn 0.000000 -1.000000 0.000000
vn 0.000000 -1.000000 0.000000
vn 0.000000 -1.000000 0.000000
vn 0.000000 -1.000000 0.000000
vn -1.000000 0.000000 0.000000
vn -1.000000 0.000000 0.000000
vn -1.000000 0.000000 0.000000
vn -1.000000 0.000000 0.000000
vn 0.000000 1.000000 0.000000
vn 0.000000 1.000000 0.000000
vn 0.000000 1.000000 0.000000
vn 0.000000 1.000000 0.000000
vn 0.000000 1.000000 0.000000
vn 0.000000 1.000000 0.000000
vn 0.000000 1.000000 0.000000
vn 0.000000 1.000000 0.000000
vn 1.000000 -0.000000 0.000000
vn 1.000000 -0.000000 0.000000
vn 1.000000 -0.000000 0.000000
vn 1.000000 -0.000000 0.000000
vn 1.000000 -0.000000 0.000000
vn 1.000000 -0.000000 0.000000
vn 1.000000 -0.000000 0.000000
vn 1.000000 -0.000000 0.000000
vn 0.000000 0.000000 1.000000
vn 0.000000 0.000000 1.000000
vn 0.000000 0.000000 1.000000
vn 0.000000 0.000000 1.000000
vn 0.000000 0.000000 1.000000
vn 0.000000 0.000000 1.000000
vn 0.000000 0.000000 1.000000
vn 0.000000 0.000000 1.000000
vn 0.696052 0.696051 0.176138
vn 0.696052 0.696051 0.176138
vn 0.696052 0.696051 0.176138
vn 0.696052 0.696051 0.176138
vn 0.176138 0.696051 0.696052
vn 0.176138 0.696051 0.696052
vn 0.176138 0.696051 0.696052
vn 0.176138 0.696051 0.696052
vn 0.696051 0.176138 0.696052
vn 0.696051 0.176138 0.696052
vn 0.696051 0.176138 0.696052
vn 0.696051 0.176138 0.696052
vn 0.660327 0.355287 0.661619
vn 0.684013 0.369198 0.629142
vn 0.655663 0.377874 0.653695
vn 0.630252 0.369083 0.683052
vn 0.573175 0.743516 0.344462
vn 0.573175 0.743516 0.344462
vn 0.621928 0.697760 0.355440
vn 0.671047 0.655255 0.346896
vn 0.344139 0.746470 0.569518
vn 0.344139 0.746470 0.569518
vn 0.347616 0.658367 0.667619
vn 0.356728 0.697546 0.621429
vn 0.362615 0.670265 0.647499
vn 0.355176 0.633113 0.687763
vn 0.648918 0.669730 0.361064
vn 0.688923 0.632494 0.354029
vn 0.339450 0.563050 0.753491
vn 0.339450 0.563050 0.753491
vn 0.571361 0.347879 0.743322
vn 0.571361 0.347879 0.743322
vn 0.742015 0.348500 0.572679
vn 0.742015 0.348500 0.572679
vn 0.758181 0.557621 0.337966
vn 0.758181 0.557621 0.337966
s off
g pCube1
f 4/9/1 5/1/2 7/3/3 6/2/4
f 6/2/5 7/3/6 2/5/7 1/4/8
f 6/6/9 1/17/10 3/10/11 4/7/12
f 8/20/13 9/21/14 10/22/15 11/8/16 5/1/17 4/9/18 3/10/19 12/11/20
f 13/23/21 14/24/22 15/25/23 16/12/24 2/18/25 7/13/26 5/14/27 11/15/28
f 17/26/29 18/27/30 19/28/31 12/16/32 3/10/33 1/17/34 2/18/35 16/19/36
f 11/29/37 10/30/38 22/54/39 13/31/40
f 8/32/41 12/33/42 19/34/43 20/50/44
f 16/35/45 15/36/46 23/57/47 17/37/48
s 1
f 23/58/49 26/63/50 21/56/51 25/62/52
s 2
f 10/42/53 9/43/54 24/59/55 22/55/56
s 3
f 9/46/57 8/47/58 20/51/59 24/60/60
f 21/52/61 24/60/60 20/51/59 25/61/62
s 2
f 22/55/56 24/59/55 21/53/63 26/64/64
s 3
f 25/61/62 20/51/59 19/48/65 18/49/66
s 1
f 23/58/49 25/62/52 18/40/67 17/41/68
f 15/38/69 14/39/70 26/63/50 23/58/49
s 2
f 22/55/56 26/64/64 14/44/71 13/45/72
